<svg viewBox="-768 -377 1536 754" width="1536" height="754" style="background-color: rgb(255, 255, 255);" xmlns="http://www.w3.org/2000/svg"><path d="M-101.50765275814263,23.912467375871344L-135.3805070576908,21.954209755173583M-135.3805070576908,-73.18050789762475L-135.3805070576908,21.954209755173583M-135.3805070576908,21.954209755173583L-162.8325949924499,55.94021056344355M-101.5076527581426,-71.22225027692697L-101.50765275814263,23.912467375871344M-101.50765275814263,23.912467375871344L-128.9597406929017,57.89846818414132" style="fill:none;stroke:rgb(0,0,0);stroke-width:1;stroke-linecap:round"></path><path d="M-101.50765275814263,23.912467375871344L-135.38050705769083,21.95420975517358L-135.3805070576908,-73.18050789762474zM-101.5076527581426,-71.22225027692697L-101.50765275814263,23.912467375871344L-135.3805070576908,-73.18050789762474z" style="fill:rgb(238,238,238); fill-opacity: 0.4"></path><path d="M-101.5076527581426,-71.22225027692697L-135.3805070576908,-73.18050789762475M-135.3805070576908,-73.18050789762475L-162.83259499244988,-39.19450708935477M71.88105858178749,28.031532263195448L-26.105965383779996,22.366705947905388M-26.105965383779996,-56.606053258224215L-26.105965383779996,22.366705947905388M-26.105965383779996,22.366705947905388L-50.19942454280648,52.19468567748727M-101.5076527581426,-71.22225027692697L-128.9597406929017,-37.23624946865701" style="fill:none;stroke:rgb(0,0,0);stroke-width:1;stroke-linecap:round"></path><path d="M-162.8325949924499,55.940210563443564L-135.38050705769083,21.95420975517358L-101.50765275814263,23.912467375871344zM71.88105858178749,28.031532263195448L-26.105965383779996,22.366705947905388L-26.105965383779996,-56.606053258224215z" style="fill:rgb(238,238,238); fill-opacity: 0.4"></path><path d="M-110.28682211215877,-1.777642240807334L-144.15967641170695,-3.7358998615050947M-144.15967641170695,-25.44610948957452L-144.15967641170695,-3.7358998615050947M-144.15967641170695,-3.7358998615050947L-148.91878892729142,2.1559362052337976M71.88105858178749,-50.94122694293416L71.88105858178749,28.031532263195448M71.88105858178749,28.031532263195448L47.787599422761005,57.85951199277733" style="fill:none;stroke:rgb(0,0,0);stroke-width:1;stroke-linecap:round"></path><path d="M-110.28682211215877,-1.777642240807334L-144.15967641170698,-3.735899861505096L-144.15967641170698,-25.44610948957452z" style="fill:rgb(153,221,255); fill-opacity: 0.4"></path><path d="M71.88105858178749,-50.94122694293416L-26.105965383779996,-56.606053258224215M-26.105965383779996,-56.606053258224215L-50.19942454280648,-26.778073528642345M-110.28682211215877,-23.48785186887676L-144.15967641170695,-25.44610948957452M-144.15967641170695,-25.44610948957452L-148.91878892729142,-19.554273422835628M-110.28681965792289,-23.487852199375748L-110.28681965792289,-1.7776425713063235M-110.28681965792289,-1.7776425713063235L-115.04593238625625,4.114193758818162M-110.28681965792289,-1.7776425713063235L-35.8994788388264,-4.817934620896448M-110.28682211215877,-23.48785186887676L-110.28682211215877,-1.777642240807334M-110.28682211215877,-1.777642240807334L-115.04593462774324,4.114193825931558" style="fill:none;stroke:rgb(0,0,0);stroke-width:1;stroke-linecap:round"></path><path d="M-128.95974069290173,57.89846818414132L-101.50765275814263,23.912467375871344L-101.5076527581426,-71.22225027692697z" style="fill:rgb(238,238,238); fill-opacity: 0.4"></path><path d="M-157.3290654039668,-7.01203756302873h22.531488583584647v11.2657442917923h-22.531488583584647z" style="fill:rgb(255,255,255)"></path><path d="M-110.28682211215877,-23.48785186887676L-110.28682211215877,-1.777642240807334L-144.15967641170698,-25.44610948957452z" style="fill:rgb(153,221,255); fill-opacity: 0.4"></path><path d="M-135.3805070576908,-73.18050789762474L-135.38050705769083,21.95420975517358L-162.8325949924499,-39.19450708935477z" style="fill:rgb(238,238,238); fill-opacity: 0.4"></path><path d="M-148.91878892729142,2.1559362052337936L-144.15967641170698,-3.735899861505096L-110.28682211215877,-1.777642240807334zM-144.15967641170698,-25.44610948957452L-144.15967641170698,-3.735899861505096L-148.91878892729142,-19.55427342283563z" style="fill:rgb(153,221,255); fill-opacity: 0.4"></path><path d="M71.88105858178749,-50.94122694293416L71.88105858178749,28.031532263195448L-26.105965383779996,-56.606053258224215z" style="fill:rgb(238,238,238); fill-opacity: 0.4"></path><path d="M-110.28681965792289,-23.487852199375748L-115.04593238625625,-17.59601586925126M-110.28681965792289,-23.487852199375748L-35.8994788388264,-4.817934620896448M-110.28682211215877,-23.48785186887676L-115.04593462774324,-17.596015802137867" style="fill:none;stroke:rgb(0,0,0);stroke-width:1;stroke-linecap:round"></path><path d="M-110.28682241792504,-23.48785188655372L-110.28682241792504,-1.7776422584842948L-115.0459349335095,4.114193808254595z" style="fill:rgb(255,187,187); fill-opacity: 0.4"></path><path d="M-115.04593462774324,4.114193825931555L-110.28682211215877,-1.777642240807334L-110.28682211215877,-23.48785186887676zM-144.15967641170698,-3.735899861505096L-148.91878892729142,2.1559362052337936L-148.91878892729142,-19.55427342283563zM-115.04593462774324,-17.59601580213787L-110.28682211215877,-23.48785186887676L-144.15967641170698,-25.44610948957452zM-115.04593462774324,4.114193825931555L-148.91878892729142,2.1559362052337936L-110.28682211215877,-1.777642240807334z" style="fill:rgb(153,221,255); fill-opacity: 0.4"></path><path d="M-110.28682241792504,-1.7776422584842948L-110.28682241792504,-23.48785188655372L-35.899477203512475,-4.817934492975801z" style="fill:rgb(255,187,187); fill-opacity: 0.4"></path><path d="M-148.91878892729142,-19.554273422835628L-148.91878892729142,2.1559362052337976M-148.91878892729142,2.1559362052337976L-115.04593462774324,4.114193825931558" style="fill:none;stroke:rgb(0,0,0);stroke-width:1;stroke-linecap:round"></path><path d="M-148.91878892729142,-19.55427342283563L-115.04593462774324,-17.59601580213787L-144.15967641170698,-25.44610948957452z" style="fill:rgb(153,221,255); fill-opacity: 0.4"></path><path d="M-128.9597406929017,-37.23624946865701L-101.5076527581426,-71.22225027692697L-135.3805070576908,-73.18050789762474z" style="fill:rgb(238,238,238); fill-opacity: 0.4"></path><path d="M-115.0459349335095,4.114193808254595L-110.28682241792504,-1.7776422584842948L-35.899477203512475,-4.817934492975801zM-110.28682241792504,-23.48785188655372L-115.0459349335095,4.114193808254595L-115.0459349335095,-17.59601581981483z" style="fill:rgb(255,187,187); fill-opacity: 0.4"></path><path d="M-115.04593462774324,-17.59601580213787L-115.04593462774324,4.114193825931555L-110.28682211215877,-23.48785186887676z" style="fill:rgb(153,221,255); fill-opacity: 0.4"></path><path d="M71.88105858178749,-50.94122694293416L47.787599422761005,-21.113247213352285" style="fill:none;stroke:rgb(0,0,0);stroke-width:1;stroke-linecap:round"></path><path d="M-160.18453291331747,-20.845103625440935h22.531488583584647v11.2657442917923h-22.531488583584647z" style="fill:rgb(255,255,255)"></path><path d="M-50.19942454280648,52.19468567748727L-26.105965383779996,22.366705947905388L71.88105858178749,28.031532263195448z" style="fill:rgb(238,238,238); fill-opacity: 0.4"></path><path d="M-148.91878892729142,-19.554273422835628L-115.04593462774324,-17.596015802137867" style="fill:none;stroke:rgb(0,0,0);stroke-width:1;stroke-linecap:round"></path><path d="M-148.91878892729142,-19.55427342283563L-148.91878892729142,2.1559362052337936L-115.04593462774324,-17.59601580213787zM-148.91878892729142,2.1559362052337936L-115.04593462774324,4.114193825931555L-115.04593462774324,-17.59601580213787z" style="fill:rgb(153,221,255); fill-opacity: 0.4"></path><path d="M-115.04593462774324,-17.596015802137867L-115.04593462774324,4.114193825931558M-115.04593238625625,4.114193758818162L-115.04593238625625,-17.59601586925126M-115.04593238625625,4.114193758818162L-35.8994788388264,-4.817934620896448" style="fill:none;stroke:rgb(0,0,0);stroke-width:1;stroke-linecap:round"></path><path d="M-110.28682241792504,-23.48785188655372L-115.0459349335095,-17.59601581981483L-35.899477203512475,-4.817934492975801z" style="fill:rgb(255,187,187); fill-opacity: 0.4"></path><path d="M257.7401506922847,32.26124523968262L147.25165951545472,25.873684039996217M147.25165951545472,-35.63597333092388L147.25165951545472,25.873684039996217M147.25165951545472,25.873684039996217L126.57900128456899,51.466672850671806" style="fill:none;stroke:rgb(0,0,0);stroke-width:1;stroke-linecap:round"></path><path d="M-115.0459349335095,-17.59601581981483L-115.0459349335095,4.114193808254595L-35.899477203512475,-4.817934492975801z" style="fill:rgb(255,187,187); fill-opacity: 0.4"></path><path d="M-26.105965383779996,-56.606053258224215L-26.105965383779996,22.366705947905388L-50.19942454280648,-26.778073528642345z" style="fill:rgb(238,238,238); fill-opacity: 0.4"></path><path d="M-115.04593238625625,-17.59601586925126L-35.8994788388264,-4.817934620896448" style="fill:none;stroke:rgb(0,0,0);stroke-width:1;stroke-linecap:round"></path><path d="M-128.95974069290173,57.89846818414132L-162.8325949924499,55.940210563443564L-101.50765275814263,23.912467375871344z" style="fill:rgb(238,238,238); fill-opacity: 0.4"></path><path d="M-166.97923789923001,-68.71540271601157h22.531488583584647v11.2657442917923h-22.531488583584647z" style="fill:rgb(255,255,255)"></path><path d="M-135.38050705769083,21.95420975517358L-162.8325949924499,55.940210563443564L-162.8325949924499,-39.19450708935477zM257.7401506922848,32.26124523968262L147.25165951545475,25.873684039996217L147.25165951545475,-35.63597333092388zM47.787599422761005,57.85951199277733L71.88105858178749,28.031532263195448L71.88105858178749,-50.94122694293416z" style="fill:rgb(238,238,238); fill-opacity: 0.4"></path><path d="M257.7401506922847,-29.248412131237483L147.25165951545472,-35.63597333092388M147.25165951545472,-35.63597333092388L126.57900128456899,-10.042984520248295M257.7401506922847,-29.248412131237483L257.7401506922847,32.26124523968262M257.7401506922847,32.26124523968262L237.06749246139898,57.85423405035821" style="fill:none;stroke:rgb(0,0,0);stroke-width:1;stroke-linecap:round"></path><path d="M47.787599422761005,-21.113247213352285L71.88105858178749,-50.94122694293416L-26.105965383779996,-56.606053258224215zM257.7401506922848,-29.248412131237483L257.7401506922848,32.26124523968262L147.25165951545475,-35.63597333092388zM-128.9597406929017,-37.23624946865701L-128.95974069290173,57.89846818414132L-101.5076527581426,-71.22225027692697z" style="fill:rgb(238,238,238); fill-opacity: 0.4"></path><path d="M-56.025383849655846,-54.2199585722541h22.531488583584593v11.2657442917923h-22.531488583584593z" style="fill:rgb(255,255,255)"></path><path d="M-162.8325949924499,-39.19450708935477L-128.9597406929017,-37.23624946865701L-135.3805070576908,-73.18050789762474zM-26.105965383779996,22.366705947905388L-50.19942454280648,52.19468567748727L-50.19942454280648,-26.778073528642345zM126.57900128456899,51.46667285067182L147.25165951545475,25.873684039996217L257.7401506922848,32.26124523968262zM47.787599422761005,57.85951199277733L-50.19942454280648,52.19468567748727L71.88105858178749,28.031532263195448z" style="fill:rgb(238,238,238); fill-opacity: 0.4"></path><path d="M257.7401506922847,-29.248412131237483L237.06749246139898,-3.6554233205618907" style="fill:none;stroke:rgb(0,0,0);stroke-width:1;stroke-linecap:round"></path><path d="M147.25165951545475,-35.63597333092388L147.25165951545475,25.873684039996217L126.57900128456899,-10.042984520248295z" style="fill:rgb(238,238,238); fill-opacity: 0.4"></path><path d="M349.0321231798726,181.57040202812462L333.76684368782486,180.68788561444927M333.76684368782486,-146.3710425831069L333.76684368782486,180.68788561444927M333.76684368782486,180.68788561444927L330.46807825661546,184.77179518365264M-162.83259499244988,-39.19450708935477L-162.8325949924499,55.94021056344355M-162.8325949924499,55.94021056344355L-128.9597406929017,57.89846818414132M54.21825344943056,1.9177204162898023L-43.76877051613692,-3.7471058990002595M-43.76877051613692,-25.457315527069685L-43.76877051613692,-3.7471058990002595M-43.76877051613692,-3.7471058990002595L-48.52788303172138,2.144730167738633M349.0321231798726,-145.4885261694316L349.0321231798726,181.57040202812462M349.0321231798726,181.57040202812462L345.7333577486632,185.65431159732796" style="fill:none;stroke:rgb(0,0,0);stroke-width:1;stroke-linecap:round"></path><path d="M330.46807825661546,184.77179518365264L333.76684368782486,180.68788561444927L349.0321231798726,181.5704020281246z" style="fill:rgb(238,238,238); fill-opacity: 0.4"></path><path d="M-158.11373499270084,56.806876397373046h22.531488583584647v11.2657442917923h-22.531488583584647z" style="fill:rgb(255,255,255)"></path><path d="M-128.9597406929017,-37.23624946865701L-128.9597406929017,57.89846818414132M54.21825344943056,-19.79248921177962L-43.76877051613692,-25.457315527069685M-43.76877051613692,-25.457315527069685L-48.52788303172138,-19.565479460330792" style="fill:none;stroke:rgb(0,0,0);stroke-width:1;stroke-linecap:round"></path><path d="M-50.19942454280648,-26.778073528642345L47.787599422761005,-21.113247213352285L-26.105965383779996,-56.606053258224215z" style="fill:rgb(238,238,238); fill-opacity: 0.4"></path><path d="M-56.93816152059973,-7.023243716853381h22.531488583584593v11.265744291792302h-22.531488583584593z" style="fill:rgb(255,255,255)"></path><path d="M54.21825344943056,1.9177204162898047L-43.76877051613692,-3.747105899000257L-43.76877051613692,-25.457315527069685z" style="fill:rgb(153,221,255); fill-opacity: 0.4"></path><path d="M345.7333577486632,185.65431159732796L330.46807825661546,184.77179518365264L349.0321231798726,181.5704020281246z" style="fill:rgb(238,238,238); fill-opacity: 0.4"></path><path d="M320.4496797836429,185.4368859454244h22.531488583584434v11.2657442917923h-22.531488583584434z" style="fill:rgb(255,255,255)"></path><path d="M-162.8325949924499,55.940210563443564L-128.95974069290173,57.89846818414132L-128.9597406929017,-37.23624946865701z" style="fill:rgb(238,238,238); fill-opacity: 0.4"></path><path d="M-43.76877051613692,-25.457315527069685L-43.76877051613692,-3.747105899000257L-48.52788303172138,-19.565479460330792z" style="fill:rgb(153,221,255); fill-opacity: 0.4"></path><path d="M330.46807825661546,-142.28713301390354L330.46807825661546,184.77179518365264M330.46807825661546,184.77179518365264L345.7333577486632,185.65431159732796" style="fill:none;stroke:rgb(0,0,0);stroke-width:1;stroke-linecap:round"></path><path d="M237.067492461399,57.854234050358215L257.7401506922848,32.26124523968262L257.7401506922848,-29.248412131237483z" style="fill:rgb(238,238,238); fill-opacity: 0.4"></path><path d="M-48.52788303172138,2.1447301677386323L-43.76877051613692,-3.747105899000257L54.21825344943056,1.9177204162898047z" style="fill:rgb(153,221,255); fill-opacity: 0.4"></path><path d="M47.787599422761005,-21.113247213352285L47.787599422761005,57.85951199277733L71.88105858178749,-50.94122694293416z" style="fill:rgb(238,238,238); fill-opacity: 0.4"></path><path d="M345.7333577486632,-141.40461660022822L345.7333577486632,185.65431159732796M-50.19942454280648,-26.778073528642345L-50.19942454280648,52.19468567748727M-50.19942454280648,52.19468567748727L47.787599422761005,57.85951199277733" style="fill:none;stroke:rgb(0,0,0);stroke-width:1;stroke-linecap:round"></path><path d="M-182.13301597640074,4.125570253480169h22.531488583584647v11.2657442917923h-22.531488583584647z" style="fill:rgb(255,255,255)"></path><path d="M-43.76877051613692,-3.747105899000257L-48.52788303172138,2.1447301677386323L-48.52788303172138,-19.565479460330792z" style="fill:rgb(153,221,255); fill-opacity: 0.4"></path><path d="M-162.8325949924499,-39.19450708935477L-162.8325949924499,55.940210563443564L-128.9597406929017,-37.23624946865701zM237.067492461399,-3.6554233205618916L257.7401506922848,-29.248412131237483L147.25165951545475,-35.63597333092388z" style="fill:rgb(238,238,238); fill-opacity: 0.4"></path><path d="M54.21825344943056,-19.792489211779618L54.21825344943056,1.9177204162898047L-43.76877051613692,-25.457315527069685z" style="fill:rgb(153,221,255); fill-opacity: 0.4"></path><path d="M119.04264389034358,-35.36737366095027h22.531488583584647v11.2657442917923h-22.531488583584647z" style="fill:rgb(255,255,255)"></path><path d="M54.21825344943056,-19.79248921177962L54.21825344943056,1.9177204162898023M54.21825344943056,1.9177204162898023L49.4591409338461,7.809556483028694M54.21825428208136,-19.79248955029394L54.21825428208136,1.917720595387218M54.21825428208136,1.917720595387218L49.4591417664969,7.809556662126108M54.21825428208136,1.917720595387218L130.05492202137623,-6.697248677669722M-48.52788303172138,-19.565479460330792L-48.52788303172138,2.144730167738633M-48.52788303172138,2.144730167738633L49.4591409338461,7.809556483028694" style="fill:none;stroke:rgb(0,0,0);stroke-width:1;stroke-linecap:round"></path><path d="M147.25165951545475,25.873684039996217L126.57900128456899,51.46667285067182L126.57900128456899,-10.042984520248295z" style="fill:rgb(238,238,238); fill-opacity: 0.4"></path><path d="M-162.83259499244988,-39.19450708935477L-128.9597406929017,-37.23624946865701" style="fill:none;stroke:rgb(0,0,0);stroke-width:1;stroke-linecap:round"></path><path d="M-59.7936290299504,-20.856309779265587h22.531488583584593v11.2657442917923h-22.531488583584593z" style="fill:rgb(255,255,255)"></path><path d="M54.21825344943056,-19.79248921177962L49.4591409338461,-13.90065314504073M54.21825428208136,-19.79248955029394L49.4591417664969,-13.90065348355505M54.21825428208136,-19.79248955029394L130.05492202137623,-6.697248677669722" style="fill:none;stroke:rgb(0,0,0);stroke-width:1;stroke-linecap:round"></path><path d="M49.4591409338461,-13.90065314504073L54.21825344943056,-19.792489211779618L-43.76877051613692,-25.457315527069685zM-48.52788303172138,-19.565479460330792L49.4591409338461,-13.90065314504073L-43.76877051613692,-25.457315527069685z" style="fill:rgb(153,221,255); fill-opacity: 0.4"></path><path d="M-48.52788303172138,-19.565479460330792L49.4591409338461,-13.90065314504073" style="fill:none;stroke:rgb(0,0,0);stroke-width:1;stroke-linecap:round"></path><path d="M49.4591409338461,7.809556483028694L-48.52788303172138,2.1447301677386323L54.21825344943056,1.9177204162898047z" style="fill:rgb(153,221,255); fill-opacity: 0.4"></path><path d="M349.0321231798726,181.5704020281246L333.76684368782486,180.68788561444927L333.76684368782486,-146.3710425831069z" style="fill:rgb(238,238,238); fill-opacity: 0.4"></path><path d="M-13.423479466925869,54.914635397694724h22.531488583584604v11.2657442917923h-22.531488583584604z" style="fill:rgb(255,255,255)"></path><path d="M49.4591409338461,7.809556483028694L54.21825344943056,1.9177204162898047L54.21825344943056,-19.792489211779618z" style="fill:rgb(153,221,255); fill-opacity: 0.4"></path><path d="M54.21825515586728,-19.79248911312709L54.21825515586728,1.917720514942333L49.45914264028282,7.809556581681223zM54.21825515586728,1.917720514942333L54.21825515586728,-19.79248911312709L130.05492280462553,-6.697247928773087z" style="fill:rgb(255,187,187); fill-opacity: 0.4"></path><path d="M237.067492461399,57.854234050358215L126.57900128456899,51.46667285067182L257.7401506922848,32.26124523968262z" style="fill:rgb(238,238,238); fill-opacity: 0.4"></path><path d="M-69.49984729583838,8.461024173541052h22.531488583584647v11.2657442917923h-22.531488583584647z" style="fill:rgb(255,255,255)"></path><path d="M-48.52788303172138,-19.565479460330792L-48.52788303172138,2.1447301677386323L49.4591409338461,-13.90065314504073z" style="fill:rgb(153,221,255); fill-opacity: 0.4"></path><path d="M257.23877492767946,14.871489331437976L304.2214799099628,17.587653704801035" style="fill:none;stroke:rgb(0,0,0);stroke-width:1;stroke-linecap:round"></path><path d="M345.7333577486632,185.65431159732796L349.0321231798726,181.5704020281246L349.0321231798726,-145.4885261694316z" style="fill:rgb(238,238,238); fill-opacity: 0.4"></path><path d="M47.787599422761005,-21.113247213352285L47.787599422761005,57.85951199277733" style="fill:none;stroke:rgb(0,0,0);stroke-width:1;stroke-linecap:round"></path><path d="M49.45914264028282,7.809556581681223L54.21825515586728,1.917720514942333L130.05492280462553,-6.697247928773087z" style="fill:rgb(255,187,187); fill-opacity: 0.4"></path><path d="M-50.19942454280648,52.19468567748727L47.787599422761005,57.85951199277733L47.787599422761005,-21.113247213352285zM-50.19942454280648,-26.778073528642345L-50.19942454280648,52.19468567748727L47.787599422761005,-21.113247213352285z" style="fill:rgb(238,238,238); fill-opacity: 0.4"></path><path d="M-48.52788303172138,2.1447301677386323L49.4591409338461,7.809556483028694L49.4591409338461,-13.90065314504073z" style="fill:rgb(153,221,255); fill-opacity: 0.4"></path><path d="M333.76684368782486,180.68788561444927L330.46807825661546,184.77179518365264L330.46807825661546,-142.28713301390354z" style="fill:rgb(238,238,238); fill-opacity: 0.4"></path><path d="M-50.19942454280648,-26.778073528642345L47.787599422761005,-21.113247213352285" style="fill:none;stroke:rgb(0,0,0);stroke-width:1;stroke-linecap:round"></path><path d="M49.4591409338461,-13.90065314504073L49.4591409338461,7.809556483028694L54.21825344943056,-19.792489211779618z" style="fill:rgb(153,221,255); fill-opacity: 0.4"></path><path d="M54.21825515586728,-19.79248911312709L49.45914264028282,7.809556581681223L49.45914264028282,-13.900653046388204zM54.21825515586728,-19.79248911312709L49.45914264028282,-13.900653046388204L130.05492280462553,-6.697247928773087z" style="fill:rgb(255,187,187); fill-opacity: 0.4"></path><path d="M126.57900128456899,-10.042984520248295L237.067492461399,-3.6554233205618916L147.25165951545475,-35.63597333092388z" style="fill:rgb(238,238,238); fill-opacity: 0.4"></path><path d="M441.37840299153225,96.13587896125483L426.1131234994845,95.25336254757953M426.1131234994845,-50.25907234363898L426.1131234994845,95.25336254757953M426.1131234994845,95.25336254757953L422.8143580682751,99.33727211678288M49.4591409338461,-13.90065314504073L49.4591409338461,7.809556483028694M49.4591417664969,7.809556662126108L49.4591417664969,-13.90065348355505M49.4591417664969,7.809556662126108L130.05492202137623,-6.697248677669722" style="fill:none;stroke:rgb(0,0,0);stroke-width:1;stroke-linecap:round"></path><path d="M330.46807825661546,184.77179518365264L345.7333577486632,185.65431159732796L345.7333577486632,-141.40461660022825z" style="fill:rgb(238,238,238); fill-opacity: 0.4"></path><path d="M441.37840299153225,-49.376555929963665L441.37840299153225,96.13587896125483M441.37840299153225,96.13587896125483L438.07963756032285,100.21978853045819" style="fill:none;stroke:rgb(0,0,0);stroke-width:1;stroke-linecap:round"></path><path d="M49.45914264028282,-13.900653046388204L49.45914264028282,7.809556581681223L130.05492280462553,-6.697247928773087z" style="fill:rgb(255,187,187); fill-opacity: 0.4"></path><path d="M49.4591417664969,-13.90065348355505L130.05492202137623,-6.697248677669722" style="fill:none;stroke:rgb(0,0,0);stroke-width:1;stroke-linecap:round"></path><path d="M304.92081393774754,12.330887950109743L303.52214588217794,14.062455100122559L329.9151466971488,19.07305609648396z" style="fill:rgb(0,0,0)"></path><path d="M126.57900128456899,-10.042984520248295L126.57900128456899,51.466672850671806M126.57900128456899,51.466672850671806L237.06749246139898,57.85423405035821" style="fill:none;stroke:rgb(0,0,0);stroke-width:1;stroke-linecap:round"></path><path d="M303.0899336393124,20.665726986965424L304.22147990996274,23.015206111818394L329.9151466971488,19.07305609648396z" style="fill:rgb(0,0,0)"></path><path d="M422.8143580682751,99.33727211678288L426.1131234994845,95.25336254757953L441.37840299153225,96.13587896125485z" style="fill:rgb(238,238,238); fill-opacity: 0.4"></path><path d="M303.52214588217794,14.062455100122559L303.0899336393124,20.665726986965424L329.9151466971488,19.07305609648396z" style="fill:rgb(0,0,0)"></path><path d="M237.067492461399,-3.6554233205618916L237.067492461399,57.854234050358215L257.7401506922848,-29.248412131237483zM438.07963756032285,100.21978853045822L422.8143580682751,99.33727211678288L441.37840299153225,96.13587896125485z" style="fill:rgb(238,238,238); fill-opacity: 0.4"></path><path d="M349.5850547393391,20.210212917737067L396.56775972162245,22.926377291100128" style="fill:none;stroke:rgb(0,0,0);stroke-width:1;stroke-linecap:round"></path><path d="M412.7959595953023,100.00235357086655h22.53148858358486v11.2657442917923h-22.53148858358486z" style="fill:rgb(255,255,255)"></path><path d="M441.37840299153225,96.13587896125485L426.1131234994845,95.25336254757953L426.1131234994845,-50.25907234363898z" style="fill:rgb(238,238,238); fill-opacity: 0.4"></path><path d="M422.8143580682751,-46.175162774435606L422.8143580682751,99.33727211678288M422.8143580682751,99.33727211678288L438.07963756032285,100.21978853045819M438.07963756032285,-45.2926463607603L438.07963756032285,100.21978853045819" style="fill:none;stroke:rgb(0,0,0);stroke-width:1;stroke-linecap:round"></path><path d="M349.0321231798726,-145.4885261694316L349.0321231798726,181.5704020281246L333.76684368782486,-146.3710425831069z" style="fill:rgb(238,238,238); fill-opacity: 0.4"></path><path d="M107.27858076146447,16.464562583430972h22.531488583584647v11.2657442917923h-22.531488583584647zM169.6056798193139,54.54798988872143h22.531488583584647v11.2657442917923h-22.531488583584647z" style="fill:rgb(255,255,255)"></path><path d="M333.76684368782486,-146.3710425831069L333.76684368782486,180.68788561444927L330.46807825661546,-142.28713301390354zM438.07963756032285,100.21978853045822L441.37840299153225,96.13587896125485L441.37840299153225,-49.37655592996365z" style="fill:rgb(238,238,238); fill-opacity: 0.4"></path><path d="M126.57900128456899,-10.042984520248295L237.06749246139898,-3.6554233205618907" style="fill:none;stroke:rgb(0,0,0);stroke-width:1;stroke-linecap:round"></path><path d="M426.1131234994845,95.25336254757953L422.8143580682751,99.33727211678288L422.8143580682751,-46.17516277443561zM126.57900128456899,-10.042984520248295L126.57900128456899,51.46667285067182L237.067492461399,-3.6554233205618916z" style="fill:rgb(238,238,238); fill-opacity: 0.4"></path><path d="M397.2670937494073,17.669611536408834L395.8684256938376,19.401178686421648L422.26142650880854,24.41177968278305zM395.4362134509721,26.004450573264513L396.56775972162245,28.353929698117483L422.26142650880854,24.41177968278305z" style="fill:rgb(0,0,0)"></path><path d="M126.57900128456899,51.46667285067182L237.067492461399,57.854234050358215L237.067492461399,-3.6554233205618916z" style="fill:rgb(238,238,238); fill-opacity: 0.4"></path><path d="M395.8684256938376,19.401178686421648L395.4362134509721,26.004450573264513L422.26142650880854,24.41177968278305z" style="fill:rgb(0,0,0)"></path><path d="M237.06749246139898,-3.6554233205618907L237.06749246139898,57.85423405035821" style="fill:none;stroke:rgb(0,0,0);stroke-width:1;stroke-linecap:round"></path><path d="M441.37840299153225,-49.37655592996365L441.37840299153225,96.13587896125485L426.1131234994845,-50.25907234363898zM345.7333577486632,-141.40461660022825L345.7333577486632,185.65431159732796L349.0321231798726,-145.4885261694316z" style="fill:rgb(238,238,238); fill-opacity: 0.4"></path><path d="M533.724682803192,63.71110809141454L518.4594033111442,62.828591677739226M518.4594033111442,-7.156854301200499L518.4594033111442,62.828591677739226M518.4594033111442,62.828591677739226L515.1606378799348,66.9125012469426" style="fill:none;stroke:rgb(0,0,0);stroke-width:1;stroke-linecap:round"></path><path d="M422.8143580682751,99.33727211678288L438.07963756032285,100.21978853045822L438.07963756032285,-45.2926463607603z" style="fill:rgb(238,238,238); fill-opacity: 0.4"></path><path d="M441.9313345509988,25.54893650403616L488.9140395332821,28.26510087739922" style="fill:none;stroke:rgb(0,0,0);stroke-width:1;stroke-linecap:round"></path><path d="M426.1131234994845,-50.25907234363898L426.1131234994845,95.25336254757953L422.8143580682751,-46.17516277443561zM330.46807825661546,-142.28713301390354L330.46807825661546,184.77179518365264L345.7333577486632,-141.40461660022825z" style="fill:rgb(238,238,238); fill-opacity: 0.4"></path><path d="M533.724682803192,-6.274337887525189L533.724682803192,63.71110809141454M533.724682803192,63.71110809141454L530.4259173719826,67.7950176606179" style="fill:none;stroke:rgb(0,0,0);stroke-width:1;stroke-linecap:round"></path><path d="M515.1606378799348,66.9125012469426L518.4594033111442,62.828591677739226L533.724682803192,63.71110809141454zM533.724682803192,63.71110809141454L518.4594033111442,62.828591677739226L518.4594033111442,-7.156854301200505zM438.07963756032285,-45.2926463607603L438.07963756032285,100.21978853045822L441.37840299153225,-49.37655592996365z" style="fill:rgb(238,238,238); fill-opacity: 0.4"></path><path d="M441.37840299153225,-49.376555929963665L426.1131234994845,-50.25907234363898M426.1131234994845,-50.25907234363898L422.8143580682751,-46.175162774435606" style="fill:none;stroke:rgb(0,0,0);stroke-width:1;stroke-linecap:round"></path><path d="M530.4259173719826,67.79501766061792L515.1606378799348,66.9125012469426L533.724682803192,63.71110809141454z" style="fill:rgb(238,238,238); fill-opacity: 0.4"></path><path d="M505.14223940696206,67.5775861660088h22.53148858358486v11.2657442917923h-22.53148858358486z" style="fill:rgb(255,255,255)"></path><path d="M422.8143580682751,-46.17516277443561L422.8143580682751,99.33727211678288L438.07963756032285,-45.2926463607603z" style="fill:rgb(238,238,238); fill-opacity: 0.4"></path><path d="M489.61337356106696,23.008335122707923L488.21470550549725,24.739902272720737L514.6077063204683,29.750503269082138z" style="fill:rgb(0,0,0)"></path><path d="M441.37840299153225,-49.376555929963665L438.07963756032285,-45.2926463607603" style="fill:none;stroke:rgb(0,0,0);stroke-width:1;stroke-linecap:round"></path><path d="M487.78249326263176,31.343174159563603L488.9140395332821,33.69265328441657L514.6077063204683,29.750503269082138z" style="fill:rgb(0,0,0)"></path><path d="M530.4259173719826,67.79501766061792L533.724682803192,63.71110809141454L533.724682803192,-6.274337887525189z" style="fill:rgb(238,238,238); fill-opacity: 0.4"></path><path d="M515.1606378799348,-3.0729447319971275L515.1606378799348,66.9125012469426M515.1606378799348,66.9125012469426L530.4259173719826,67.7950176606179" style="fill:none;stroke:rgb(0,0,0);stroke-width:1;stroke-linecap:round"></path><path d="M533.724682803192,-6.274337887525189L533.724682803192,63.71110809141454L518.4594033111442,-7.156854301200505z" style="fill:rgb(238,238,238); fill-opacity: 0.4"></path><path d="M488.21470550549725,24.739902272720737L487.78249326263176,31.343174159563603L514.6077063204683,29.750503269082138z" style="fill:rgb(0,0,0)"></path><path d="M518.4594033111442,62.828591677739226L515.1606378799348,66.9125012469426L515.1606378799348,-3.072944731997133z" style="fill:rgb(238,238,238); fill-opacity: 0.4"></path><path d="M349.0321231798726,-145.4885261694316L333.76684368782486,-146.3710425831069M333.76684368782486,-146.3710425831069L330.46807825661546,-142.28713301390354" style="fill:none;stroke:rgb(0,0,0);stroke-width:1;stroke-linecap:round"></path><path d="M438.07963756032285,-45.2926463607603L441.37840299153225,-49.37655592996365L426.1131234994845,-50.25907234363898zM518.4594033111442,-7.156854301200505L518.4594033111442,62.828591677739226L515.1606378799348,-3.072944731997133z" style="fill:rgb(238,238,238); fill-opacity: 0.4"></path><path d="M530.4259173719826,-2.190428318321818L530.4259173719826,67.7950176606179M533.724682803192,-6.274337887525189L518.4594033111442,-7.156854301200499M518.4594033111442,-7.156854301200499L515.1606378799348,-3.0729447319971275M349.0321231798726,-145.4885261694316L345.7333577486632,-141.40461660022822M534.2776143626586,30.88766009033525L581.2603193449418,33.60382446369831" style="fill:none;stroke:rgb(0,0,0);stroke-width:1;stroke-linecap:round"></path><path d="M422.8143580682751,-46.17516277443561L438.07963756032285,-45.2926463607603L426.1131234994845,-50.25907234363898z" style="fill:rgb(238,238,238); fill-opacity: 0.4"></path><path d="M533.724682803192,-6.274337887525189L530.4259173719826,-2.190428318321818" style="fill:none;stroke:rgb(0,0,0);stroke-width:1;stroke-linecap:round"></path><path d="M515.1606378799348,66.9125012469426L530.4259173719826,67.79501766061792L530.4259173719826,-2.190428318321818zM345.7333577486632,-141.40461660022825L349.0321231798726,-145.4885261694316L333.76684368782486,-146.3710425831069z" style="fill:rgb(238,238,238); fill-opacity: 0.4"></path><path d="M422.8143580682751,-46.175162774435606L438.07963756032285,-45.2926463607603" style="fill:none;stroke:rgb(0,0,0);stroke-width:1;stroke-linecap:round"></path><path d="M530.4259173719826,-2.190428318321818L530.4259173719826,67.79501766061792L533.724682803192,-6.274337887525189zM530.4259173719826,-2.190428318321818L533.724682803192,-6.274337887525189L518.4594033111442,-7.156854301200505zM330.46807825661546,-142.28713301390354L345.7333577486632,-141.40461660022825L333.76684368782486,-146.3710425831069z" style="fill:rgb(238,238,238); fill-opacity: 0.4"></path><path d="M626.0709626148517,35.14261916964724L610.805683122804,34.26010275597193M610.805683122804,32.089081793164986L610.805683122804,34.26010275597193M610.805683122804,34.26010275597193L607.5069176915946,38.3440123251753" style="fill:none;stroke:rgb(0,0,0);stroke-width:1;stroke-linecap:round"></path><path d="M515.1606378799348,-3.072944731997133L515.1606378799348,66.9125012469426L530.4259173719826,-2.190428318321818z" style="fill:rgb(238,238,238); fill-opacity: 0.4"></path><path d="M626.0709626148517,32.9715982068403L610.805683122804,32.089081793164986M610.805683122804,32.089081793164986L607.5069176915946,36.17299136236836" style="fill:none;stroke:rgb(0,0,0);stroke-width:1;stroke-linecap:round"></path><path d="M626.0709626148517,35.14261916964724L610.805683122804,34.26010275597193L610.805683122804,32.089081793164986zM515.1606378799348,-3.072944731997133L530.4259173719826,-2.190428318321818L518.4594033111442,-7.156854301200505zM626.0709626148517,32.9715982068403L626.0709626148517,35.14261916964724L610.805683122804,32.089081793164986z" style="fill:rgb(238,238,238); fill-opacity: 0.4"></path><path d="M330.46807825661546,-142.28713301390354L345.7333577486632,-141.40461660022822M626.0709626148517,32.9715982068403L626.0709626148517,35.14261916964724M626.0709626148517,35.14261916964724L622.7721971836423,39.22652873885061M626.0709626148517,32.9715982068403L622.7721971836423,37.05550777604367" style="fill:none;stroke:rgb(0,0,0);stroke-width:1;stroke-linecap:round"></path><path d="M581.9596533727267,28.347058709007012L580.560985317157,30.078625859019827L606.953986132128,35.089226855381234zM580.1287730742915,36.68189774586269L581.2603193449418,39.03137687071566L606.953986132128,35.089226855381234z" style="fill:rgb(0,0,0)"></path><path d="M610.805683122804,32.089081793164986L610.805683122804,34.26010275597193L607.5069176915946,36.17299136236835z" style="fill:rgb(238,238,238); fill-opacity: 0.4"></path><path d="M515.1606378799348,-3.0729447319971275L530.4259173719826,-2.190428318321818" style="fill:none;stroke:rgb(0,0,0);stroke-width:1;stroke-linecap:round"></path><path d="M607.5069176915946,38.34401232517529L610.805683122804,34.26010275597193L626.0709626148517,35.14261916964724z" style="fill:rgb(238,238,238); fill-opacity: 0.4"></path><path d="M580.560985317157,30.078625859019827L580.1287730742915,36.68189774586269L606.953986132128,35.089226855381234z" style="fill:rgb(0,0,0)"></path><path d="M622.7721971836423,37.05550777604367L626.0709626148517,32.9715982068403L610.805683122804,32.089081793164986zM622.7721971836423,39.22652873885061L626.0709626148517,35.14261916964724L626.0709626148517,32.9715982068403zM610.805683122804,34.26010275597193L607.5069176915946,38.34401232517529L607.5069176915946,36.17299136236835zM607.5069176915946,36.17299136236835L622.7721971836423,37.05550777604367L610.805683122804,32.089081793164986zM622.7721971836423,39.22652873885061L607.5069176915946,38.34401232517529L626.0709626148517,35.14261916964724z" style="fill:rgb(238,238,238); fill-opacity: 0.4"></path><path d="M597.488519218622,37.92358621354996h22.53148858358486v11.2657442917923h-22.53148858358486z" style="fill:rgb(255,255,255)"></path><path d="M622.7721971836423,37.05550777604367L622.7721971836423,39.22652873885061L626.0709626148517,32.9715982068403z" style="fill:rgb(238,238,238); fill-opacity: 0.4"></path><path d="M607.5069176915946,36.17299136236836L607.5069176915946,38.3440123251753M607.5069176915946,38.3440123251753L622.7721971836423,39.22652873885061M607.5069176915946,36.17299136236836L622.7721971836423,37.05550777604367" style="fill:none;stroke:rgb(0,0,0);stroke-width:1;stroke-linecap:round"></path><path d="M607.5069176915946,36.17299136236835L607.5069176915946,38.34401232517529L622.7721971836423,37.05550777604367zM607.5069176915946,38.34401232517529L622.7721971836423,39.22652873885061L622.7721971836423,37.05550777604367z" style="fill:rgb(238,238,238); fill-opacity: 0.4"></path><path d="M622.7721971836423,37.05550777604367L622.7721971836423,39.22652873885061" style="fill:none;stroke:rgb(0,0,0);stroke-width:1;stroke-linecap:round"></path></svg>